<?xml version="1.0"?>
<svg xmlns="http://www.w3.org/2000/svg" xmlns:xlink="http://www.w3.org/1999/xlink" version="1.1" width="320px" height="320px" viewBox="0 0 320 320"><rect x="0" y="0" width="320" height="320" fill="#ffffff" fill-opacity="1"/><path fill="#000000" fill-opacity="1" d="M15,15L85,15L85,25L15,25ZM115,15L125,15L125,25L115,25ZM145,15L165,15L165,25L145,25ZM175,15L195,15L195,25L175,25ZM205,15L225,15L225,25L205,25ZM235,15L305,15L305,25L235,25ZM15,25L25,25L25,35L15,35ZM75,25L85,25L85,35L75,35ZM105,25L115,25L115,35L105,35ZM155,25L175,25L175,35L155,35ZM185,25L205,25L205,35L185,35ZM235,25L245,25L245,35L235,35ZM295,25L305,25L305,35L295,35ZM15,35L25,35L25,45L15,45ZM35,35L65,35L65,45L35,45ZM75,35L85,35L85,45L75,45ZM95,35L105,35L105,45L95,45ZM125,35L135,35L135,45L125,45ZM165,35L185,35L185,45L165,45ZM215,35L225,35L225,45L215,45ZM235,35L245,35L245,45L235,45ZM255,35L285,35L285,45L255,45ZM295,35L305,35L305,45L295,45ZM15,45L25,45L25,55L15,55ZM35,45L65,45L65,55L35,55ZM75,45L85,45L85,55L75,55ZM105,45L115,45L115,55L105,55ZM135,45L155,45L155,55L135,55ZM165,45L175,45L175,55L165,55ZM185,45L195,45L195,55L185,55ZM215,45L225,45L225,55L215,55ZM235,45L245,45L245,55L235,55ZM255,45L285,45L285,55L255,55ZM295,45L305,45L305,55L295,55ZM15,55L25,55L25,65L15,65ZM35,55L65,55L65,65L35,65ZM75,55L85,55L85,65L75,65ZM105,55L115,55L115,65L105,65ZM135,55L165,55L165,65L135,65ZM185,55L205,55L205,65L185,65ZM215,55L225,55L225,65L215,65ZM235,55L245,55L245,65L235,65ZM255,55L285,55L285,65L255,65ZM295,55L305,55L305,65L295,65ZM15,65L25,65L25,75L15,75ZM75,65L85,65L85,75L75,75ZM115,65L155,65L155,75L115,75ZM175,65L185,65L185,75L175,75ZM205,65L225,65L225,75L205,75ZM235,65L245,65L245,75L235,75ZM295,65L305,65L305,75L295,75ZM15,75L85,75L85,85L15,85ZM95,75L105,75L105,85L95,85ZM115,75L125,75L125,85L115,85ZM135,75L145,75L145,85L135,85ZM155,75L165,75L165,85L155,85ZM175,75L185,75L185,85L175,85ZM195,75L205,75L205,85L195,85ZM215,75L225,75L225,85L215,85ZM235,75L305,75L305,85L235,85ZM95,85L105,85L105,95L95,95ZM125,85L135,85L135,95L125,95ZM155,85L165,85L165,95L155,95ZM195,85L225,85L225,95L195,95ZM15,95L45,95L45,105L15,105ZM55,95L105,95L105,105L55,105ZM135,95L155,95L155,105L135,105ZM165,95L185,95L185,105L165,105ZM205,95L245,95L245,105L205,105ZM275,95L285,95L285,105L275,105ZM45,105L55,105L55,115L45,115ZM85,105L115,105L115,115L85,115ZM125,105L145,105L145,115L125,115ZM155,105L175,105L175,115L155,115ZM185,105L195,105L195,115L185,115ZM225,105L235,105L235,115L225,115ZM245,105L255,105L255,115L245,115ZM275,105L305,105L305,115L275,115ZM25,115L45,115L45,125L25,125ZM55,115L95,115L95,125L55,125ZM115,115L145,115L145,125L115,125ZM155,115L165,115L165,125L155,125ZM185,115L205,115L205,125L185,125ZM245,115L285,115L285,125L245,125ZM295,115L305,115L305,125L295,125ZM25,125L35,125L35,135L25,135ZM45,125L55,125L55,135L45,135ZM95,125L125,125L125,135L95,135ZM135,125L145,125L145,135L135,135ZM155,125L195,125L195,135L155,135ZM225,125L245,125L245,135L225,135ZM255,125L275,125L275,135L255,135ZM285,125L305,125L305,135L285,135ZM45,135L55,135L55,145L45,145ZM65,135L85,135L85,145L65,145ZM115,135L135,135L135,145L115,145ZM155,135L185,135L185,145L155,145ZM195,135L225,135L225,145L195,145ZM235,135L245,135L245,145L235,145ZM255,135L285,135L285,145L255,145ZM15,145L25,145L25,155L15,155ZM45,145L55,145L55,155L45,155ZM95,145L135,145L135,155L95,155ZM175,145L185,145L185,155L175,155ZM205,145L215,145L215,155L205,155ZM245,145L255,145L255,155L245,155ZM265,145L295,145L295,155L265,155ZM15,155L35,155L35,165L15,165ZM55,155L65,155L65,165L55,165ZM75,155L105,155L105,165L75,165ZM115,155L125,155L125,165L115,165ZM155,155L175,155L175,165L155,165ZM235,155L245,155L245,165L235,165ZM265,155L285,155L285,165L265,165ZM295,155L305,155L305,165L295,165ZM25,165L35,165L35,175L25,175ZM55,165L65,165L65,175L55,175ZM115,165L135,165L135,175L115,175ZM145,165L155,165L155,175L145,175ZM185,165L255,165L255,175L185,175ZM265,165L275,165L275,175L265,175ZM15,175L25,175L25,185L15,185ZM65,175L85,175L85,185L65,185ZM105,175L125,175L125,185L105,185ZM135,175L145,175L145,185L135,185ZM155,175L185,175L185,185L155,185ZM195,175L225,175L225,185L195,185ZM235,175L295,175L295,185L235,185ZM45,185L55,185L55,195L45,195ZM65,185L75,185L75,195L65,195ZM85,185L95,185L95,195L85,195ZM115,185L175,185L175,195L115,195ZM215,185L235,185L235,195L215,195ZM245,185L255,185L255,195L245,195ZM275,185L285,185L285,195L275,195ZM295,185L305,185L305,195L295,195ZM15,195L25,195L25,205L15,205ZM55,195L65,195L65,205L55,205ZM75,195L85,195L85,205L75,205ZM125,195L145,195L145,205L125,205ZM155,195L165,195L165,205L155,205ZM185,195L215,195L215,205L185,205ZM225,195L235,195L235,205L225,205ZM265,195L305,195L305,205L265,205ZM25,205L35,205L35,215L25,215ZM55,205L65,205L65,215L55,215ZM85,205L95,205L95,215L85,215ZM105,205L125,205L125,215L105,215ZM135,205L155,205L155,215L135,215ZM165,205L205,205L205,215L165,215ZM245,205L255,205L255,215L245,215ZM265,205L275,205L275,215L265,215ZM285,205L305,205L305,215L285,215ZM15,215L25,215L25,225L15,225ZM45,215L55,215L55,225L45,225ZM75,215L105,215L105,225L75,225ZM115,215L135,215L135,225L115,225ZM155,215L265,215L265,225L155,225ZM275,215L285,215L285,225L275,225ZM295,215L305,215L305,225L295,225ZM95,225L135,225L135,235L95,235ZM165,225L185,225L185,235L165,235ZM195,225L225,225L225,235L195,235ZM255,225L295,225L295,235L255,235ZM15,235L85,235L85,245L15,245ZM95,235L105,235L105,245L95,245ZM145,235L155,235L155,245L145,245ZM215,235L225,235L225,245L215,245ZM235,235L245,235L245,245L235,245ZM255,235L275,235L275,245L255,245ZM285,235L305,235L305,245L285,245ZM15,245L25,245L25,255L15,255ZM75,245L85,245L85,255L75,255ZM95,245L135,245L135,255L95,255ZM185,245L225,245L225,255L185,255ZM255,245L265,245L265,255L255,255ZM275,245L305,245L305,255L275,255ZM15,255L25,255L25,265L15,265ZM35,255L65,255L65,265L35,265ZM75,255L85,255L85,265L75,265ZM95,255L125,255L125,265L95,265ZM135,255L145,255L145,265L135,265ZM165,255L185,255L185,265L165,265ZM195,255L205,255L205,265L195,265ZM215,255L265,255L265,265L215,265ZM275,255L285,255L285,265L275,265ZM15,265L25,265L25,275L15,275ZM35,265L65,265L65,275L35,275ZM75,265L85,265L85,275L75,275ZM115,265L155,265L155,275L115,275ZM165,265L175,265L175,275L165,275ZM225,265L235,265L235,275L225,275ZM245,265L255,265L255,275L245,275ZM275,265L285,265L285,275L275,275ZM15,275L25,275L25,285L15,285ZM35,275L65,275L65,285L35,285ZM75,275L85,275L85,285L75,285ZM95,275L115,275L115,285L95,285ZM125,275L145,275L145,285L125,285ZM155,275L165,275L165,285L155,285ZM185,275L215,275L215,285L185,285ZM235,275L245,275L245,285L235,285ZM255,275L285,275L285,285L255,285ZM295,275L305,275L305,285L295,285ZM15,285L25,285L25,295L15,295ZM75,285L85,285L85,295L75,295ZM95,285L105,285L105,295L95,295ZM115,285L125,285L125,295L115,295ZM135,285L185,285L185,295L135,295ZM195,285L205,285L205,295L195,295ZM225,285L245,285L245,295L225,295ZM255,285L275,285L275,295L255,295ZM295,285L305,285L305,295L295,295ZM15,295L85,295L85,305L15,305ZM95,295L105,295L105,305L95,305ZM125,295L135,295L135,305L125,305ZM155,295L195,295L195,305L155,305ZM205,295L215,295L215,305L205,305ZM225,295L235,295L235,305L225,305ZM275,295L305,295L305,305L275,305Z"/></svg>
